<?xml version="1.0" encoding="UTF-8" standalone="no"?>
<!-- Created with Inkscape (http://www.inkscape.org/) -->

<svg
   width="37.366196mm"
   height="52.916668mm"
   viewBox="0 0 37.366196 52.916668"
   version="1.1"
   id="svg1"
   inkscape:export-filename="CrescentMoon.svg"
   inkscape:export-xdpi="96"
   inkscape:export-ydpi="96"
   xmlns:inkscape="http://www.inkscape.org/namespaces/inkscape"
   xmlns:sodipodi="http://sodipodi.sourceforge.net/DTD/sodipodi-0.dtd"
   xmlns="http://www.w3.org/2000/svg"
   xmlns:svg="http://www.w3.org/2000/svg">
  <sodipodi:namedview
     id="namedview1"
     pagecolor="#ffffff"
     bordercolor="#000000"
     borderopacity="0.25"
     inkscape:showpageshadow="2"
     inkscape:pageopacity="0.0"
     inkscape:pagecheckerboard="0"
     inkscape:deskcolor="#d1d1d1"
     inkscape:document-units="mm" />
  <defs
     id="defs1" />
  <g
     inkscape:label="Layer 1"
     inkscape:groupmode="layer"
     id="layer1"
     transform="translate(-34.494534,-95.895436)">
    <path
       id="moon"
       style="fill:#F7F6BB;stroke-width:0;opacity:0.85;"
       d="m 60.952869,95.895439 a 26.458334,26.458334 0 0 0 -26.458334,26.458331 26.458334,26.458334 0 0 0 26.458334,26.45834 26.458334,26.458334 0 0 0 10.907861,-2.36007 24.277405,24.277405 0 0 1 -2.505273,0.17932 24.277405,24.277405 0 0 1 -24.277588,-24.27759 24.277405,24.277405 0 0 1 24.277588,-24.277586 24.277405,24.277405 0 0 1 2.360579,0.115755 26.458334,26.458334 0 0 0 -10.763167,-2.2965 z"
       inkscape:label="moon" />
  </g>
</svg>
